<svg width="655" height="590" viewBox="0 0 655 590" fill="none" xmlns="http://www.w3.org/2000/svg">
<path d="M67.6377 547.06C67.6377 549.786 66.6977 552.058 64.8177 553.875C62.9691 555.661 60.1334 556.554 56.3107 556.554H50.0127V570.231H45.7357V537.472H56.3107C60.0081 537.472 62.8124 538.365 64.7237 540.151C66.6664 541.937 67.6377 544.24 67.6377 547.06ZM56.3107 553.029C58.6921 553.029 60.4467 552.512 61.5747 551.478C62.7027 550.444 63.2667 548.972 63.2667 547.06C63.2667 543.018 60.9481 540.997 56.3107 540.997H50.0127V553.029H56.3107ZM115.536 544.475V570.231H111.259V566.424C110.444 567.74 109.3 568.774 107.828 569.526C106.386 570.247 104.788 570.607 103.034 570.607C101.028 570.607 99.2265 570.2 97.6285 569.385C96.0305 568.539 94.7615 567.286 93.8215 565.625C92.9128 563.965 92.4585 561.944 92.4585 559.562V544.475H96.6885V558.998C96.6885 561.536 97.3308 563.495 98.6155 564.873C99.9002 566.221 101.655 566.894 103.88 566.894C106.167 566.894 107.969 566.189 109.285 564.779C110.601 563.369 111.259 561.317 111.259 558.622V544.475H115.536ZM146.774 548.658C147.526 547.186 148.591 546.042 149.97 545.227C151.38 544.413 153.088 544.005 155.093 544.005V548.423H153.965C149.171 548.423 146.774 551.024 146.774 556.225V570.231H142.497V544.475H146.774V548.658ZM203.27 556.366C203.27 557.181 203.223 558.043 203.129 558.951H182.543C182.7 561.489 183.562 563.479 185.128 564.92C186.726 566.33 188.653 567.035 190.909 567.035C192.758 567.035 194.293 566.612 195.515 565.766C196.769 564.889 197.646 563.73 198.147 562.288H202.753C202.064 564.764 200.685 566.785 198.617 568.351C196.549 569.887 193.98 570.654 190.909 570.654C188.465 570.654 186.272 570.106 184.329 569.009C182.418 567.913 180.914 566.362 179.817 564.356C178.721 562.32 178.172 559.97 178.172 557.306C178.172 554.643 178.705 552.309 179.77 550.303C180.836 548.298 182.324 546.763 184.235 545.697C186.178 544.601 188.403 544.052 190.909 544.052C193.353 544.052 195.515 544.585 197.395 545.65C199.275 546.716 200.717 548.188 201.719 550.068C202.753 551.917 203.27 554.016 203.27 556.366ZM198.852 555.473C198.852 553.844 198.492 552.45 197.771 551.29C197.051 550.1 196.064 549.207 194.81 548.611C193.588 547.985 192.225 547.671 190.721 547.671C188.559 547.671 186.711 548.361 185.175 549.739C183.671 551.118 182.81 553.029 182.59 555.473H198.852ZM259.328 557.259C259.328 554.627 259.861 552.324 260.926 550.35C261.991 548.345 263.448 546.794 265.297 545.697C267.177 544.601 269.261 544.052 271.548 544.052C273.804 544.052 275.762 544.538 277.423 545.509C279.084 546.481 280.321 547.703 281.136 549.175V544.475H285.46V570.231H281.136V565.437C280.29 566.941 279.021 568.195 277.329 569.197C275.668 570.169 273.726 570.654 271.501 570.654C269.214 570.654 267.146 570.09 265.297 568.962C263.448 567.834 261.991 566.252 260.926 564.215C259.861 562.179 259.328 559.86 259.328 557.259ZM281.136 557.306C281.136 555.364 280.744 553.672 279.961 552.23C279.178 550.789 278.112 549.692 276.765 548.94C275.449 548.157 273.992 547.765 272.394 547.765C270.796 547.765 269.339 548.141 268.023 548.893C266.707 549.645 265.657 550.742 264.874 552.183C264.091 553.625 263.699 555.317 263.699 557.259C263.699 559.233 264.091 560.957 264.874 562.429C265.657 563.871 266.707 564.983 268.023 565.766C269.339 566.518 270.796 566.894 272.394 566.894C273.992 566.894 275.449 566.518 276.765 565.766C278.112 564.983 279.178 563.871 279.961 562.429C280.744 560.957 281.136 559.249 281.136 557.306ZM321.546 570.654C319.572 570.654 317.801 570.325 316.235 569.667C314.668 568.978 313.43 568.038 312.522 566.847C311.613 565.625 311.112 564.231 311.018 562.664H315.436C315.561 563.949 316.156 564.999 317.222 565.813C318.318 566.628 319.744 567.035 321.499 567.035C323.128 567.035 324.413 566.675 325.353 565.954C326.293 565.234 326.763 564.325 326.763 563.228C326.763 562.1 326.261 561.27 325.259 560.737C324.256 560.173 322.705 559.625 320.606 559.092C318.694 558.591 317.128 558.09 315.906 557.588C314.715 557.056 313.681 556.288 312.804 555.285C311.958 554.251 311.535 552.904 311.535 551.243C311.535 549.927 311.926 548.721 312.71 547.624C313.493 546.528 314.605 545.666 316.047 545.039C317.488 544.381 319.133 544.052 320.982 544.052C323.833 544.052 326.136 544.773 327.891 546.214C329.645 547.656 330.585 549.63 330.711 552.136H326.434C326.34 550.789 325.791 549.708 324.789 548.893C323.817 548.079 322.501 547.671 320.841 547.671C319.305 547.671 318.083 548 317.175 548.658C316.266 549.316 315.812 550.178 315.812 551.243C315.812 552.089 316.078 552.794 316.611 553.358C317.175 553.891 317.864 554.33 318.679 554.674C319.525 554.988 320.684 555.348 322.157 555.755C324.005 556.257 325.509 556.758 326.669 557.259C327.828 557.729 328.815 558.45 329.63 559.421C330.476 560.393 330.914 561.662 330.946 563.228C330.946 564.638 330.554 565.907 329.771 567.035C328.987 568.163 327.875 569.056 326.434 569.714C325.024 570.341 323.394 570.654 321.546 570.654ZM399.381 570.56C397.219 570.56 395.276 570.184 393.553 569.432C391.861 568.649 390.529 567.584 389.558 566.236C388.586 564.858 388.085 563.275 388.054 561.489H392.613C392.769 563.025 393.396 564.325 394.493 565.39C395.621 566.424 397.25 566.941 399.381 566.941C401.417 566.941 403.015 566.44 404.175 565.437C405.365 564.403 405.961 563.087 405.961 561.489C405.961 560.236 405.616 559.218 404.927 558.434C404.237 557.651 403.376 557.056 402.342 556.648C401.308 556.241 399.913 555.802 398.159 555.332C395.997 554.768 394.258 554.204 392.942 553.64C391.657 553.076 390.545 552.199 389.605 551.008C388.696 549.786 388.242 548.157 388.242 546.12C388.242 544.334 388.696 542.752 389.605 541.373C390.513 539.995 391.782 538.929 393.412 538.177C395.072 537.425 396.968 537.049 399.099 537.049C402.169 537.049 404.676 537.817 406.619 539.352C408.593 540.888 409.705 542.924 409.956 545.462H405.256C405.099 544.209 404.441 543.112 403.282 542.172C402.122 541.201 400.587 540.715 398.676 540.715C396.89 540.715 395.433 541.185 394.305 542.125C393.177 543.034 392.613 544.319 392.613 545.979C392.613 547.17 392.942 548.141 393.6 548.893C394.289 549.645 395.119 550.225 396.091 550.632C397.093 551.008 398.488 551.447 400.274 551.948C402.436 552.544 404.175 553.139 405.491 553.734C406.807 554.298 407.935 555.191 408.875 556.413C409.815 557.604 410.285 559.233 410.285 561.301C410.285 562.899 409.862 564.403 409.016 565.813C408.17 567.223 406.916 568.367 405.256 569.244C403.595 570.122 401.637 570.56 399.381 570.56ZM447.552 570.654C445.139 570.654 442.946 570.106 440.972 569.009C439.029 567.913 437.494 566.362 436.366 564.356C435.269 562.32 434.721 559.97 434.721 557.306C434.721 554.674 435.285 552.356 436.413 550.35C437.572 548.314 439.139 546.763 441.113 545.697C443.087 544.601 445.296 544.052 447.74 544.052C450.184 544.052 452.393 544.601 454.367 545.697C456.341 546.763 457.892 548.298 459.02 550.303C460.179 552.309 460.759 554.643 460.759 557.306C460.759 559.97 460.163 562.32 458.973 564.356C457.813 566.362 456.231 567.913 454.226 569.009C452.22 570.106 449.996 570.654 447.552 570.654ZM447.552 566.894C449.087 566.894 450.528 566.534 451.876 565.813C453.223 565.093 454.304 564.012 455.119 562.57C455.965 561.129 456.388 559.374 456.388 557.306C456.388 555.238 455.98 553.484 455.166 552.042C454.351 550.601 453.286 549.536 451.97 548.846C450.654 548.126 449.228 547.765 447.693 547.765C446.126 547.765 444.685 548.126 443.369 548.846C442.084 549.536 441.05 550.601 440.267 552.042C439.483 553.484 439.092 555.238 439.092 557.306C439.092 559.406 439.468 561.176 440.22 562.617C441.003 564.059 442.037 565.14 443.322 565.86C444.606 566.55 446.016 566.894 447.552 566.894ZM508.964 544.475V570.231H504.687V566.424C503.872 567.74 502.729 568.774 501.256 569.526C499.815 570.247 498.217 570.607 496.462 570.607C494.457 570.607 492.655 570.2 491.057 569.385C489.459 568.539 488.19 567.286 487.25 565.625C486.341 563.965 485.887 561.944 485.887 559.562V544.475H490.117V558.998C490.117 561.536 490.759 563.495 492.044 564.873C493.329 566.221 495.083 566.894 497.308 566.894C499.595 566.894 501.397 566.189 502.713 564.779C504.029 563.369 504.687 561.317 504.687 558.622V544.475H508.964ZM540.203 535.451V570.231H535.926V535.451H540.203Z" fill="black"/>
<path d="M117.578 502.124C111.563 502.124 105.611 500.495 99.7206 497.236C93.8305 493.853 89.1311 487.337 85.6225 477.687L80.9231 465.469H28.2899L13.2519 501.184H4.79297L57.4261 377.12H63.0654L104.42 477.687C107.553 484.955 110.498 489.968 113.255 492.725C116.012 495.357 119.959 496.923 125.097 497.424V501.184C122.842 501.811 120.335 502.124 117.578 502.124ZM31.1095 457.95H77.1636L54.6065 403.437L31.1095 457.95ZM156.719 384.639H139.801C124.136 384.639 116.304 391.845 116.304 406.256H112.544V392.158C112.544 382.132 117.87 377.12 128.522 377.12H215.931V384.639H173.636V501.184H156.719V384.639ZM376.275 509.643C367.252 509.643 360.235 508.264 355.222 505.507C350.209 502.751 346.638 498.489 344.507 492.725C342.502 486.835 341.499 479.003 341.499 469.228V396.857L294.506 501.184H290.746L241.872 394.978V501.184H234.353V377.12H252.211L297.325 474.867L341.499 377.12H358.417V469.228C358.417 480.883 359.859 489.905 362.741 496.297C365.748 502.688 370.26 505.883 376.275 505.883V509.643ZM495.916 502.124C489.901 502.124 483.948 500.495 478.058 497.236C472.168 493.853 467.469 487.337 463.96 477.687L459.261 465.469H406.627L391.589 501.184H383.13L435.764 377.12H441.403L482.758 477.687C485.89 484.955 488.836 489.968 491.592 492.725C494.349 495.357 498.297 496.923 503.435 497.424V501.184C501.179 501.811 498.673 502.124 495.916 502.124ZM409.447 457.95H455.501L432.944 403.437L409.447 457.95ZM500.508 399.113C497.375 391.845 494.43 386.895 491.674 384.263C488.916 381.506 484.969 379.877 479.83 379.376V375.616C480.457 375.616 481.397 375.553 482.65 375.428C483.778 375.303 484.969 375.24 486.222 375.24C492.488 375.24 498.503 376.869 504.268 380.128C510.032 383.26 514.92 389.589 518.93 399.113L551.074 474.867L562.164 449.115C567.428 436.959 577.516 412.96 592.429 377.12H601.451L547.502 503.064H544.119L500.508 399.113Z" fill="black"/>
<mask id="mask0_395_137" style="mask-type:luminance" maskUnits="userSpaceOnUse" x="73" y="0" width="461" height="342">
<path d="M533.342 0H73.9336V341.467H533.342V0Z" fill="white"/>
</mask>
<g mask="url(#mask0_395_137)">
<path d="M415.318 226.902C415.318 226.902 488.524 185.849 483.294 102.255C483.294 102.255 422.042 87.3258 363.772 126.887C363.772 126.887 356.302 31.3496 303.266 0C303.266 0 251.725 27.4334 245.002 125.393C245.002 125.393 185.243 89.5656 123.239 102.255C123.239 102.255 120.25 176.145 188.227 225.409C188.227 225.409 119.503 228.394 73.9336 281.385C73.9336 281.385 118.756 340.347 203.168 337.362C287.578 334.376 405.607 188.088 513.176 280.639C513.176 280.639 475.824 376.922 321.196 306.763C321.196 306.763 463.129 399.314 533.347 282.131C533.347 282.131 504.958 238.84 430.26 238.84C355.56 238.84 311.484 305.266 224.085 323.18C136.686 341.094 97.8392 282.127 97.8392 282.127C97.8392 282.127 129.962 238.088 197.938 231.375C197.938 231.375 146.397 185.097 141.168 118.671C141.168 118.671 202.42 108.968 250.232 135.092C250.232 135.092 249.484 61.9478 304.013 20.1484C304.013 20.1484 354.06 61.9478 359.29 134.346C359.29 134.346 405.607 105.235 469.848 114.938C469.848 114.938 469.101 183.604 415.318 226.897V226.902Z" fill="black"/>
<path d="M274.586 308.212C274.586 308.212 268.61 263.924 256.657 243.522C238.578 212.665 229.266 193.263 229.266 193.263C229.266 193.263 237.732 183.809 246.199 170.373C254.665 156.938 288.033 126.086 290.523 118.622C293.013 111.157 301.48 76.3242 304.966 76.3242V117.626C304.966 117.626 297.496 119.119 292.515 128.076C287.535 137.033 260.642 185.799 250.183 193.263C250.183 193.263 251.677 199.732 260.144 207.694C268.61 215.656 274.088 234.067 280.563 235.56C287.037 237.054 294.01 232.077 293.013 220.632C292.018 209.187 283.053 203.713 280.064 192.268C277.077 180.823 278.072 153.952 305.464 154.947V292.288L274.586 308.212Z" fill="black"/>
<path d="M282.802 198.987C282.802 198.987 271.846 186.048 279.815 181.57L282.802 198.987Z" fill="black"/>
<path d="M326.629 198.987C326.629 198.987 337.586 186.048 329.617 181.57L326.629 198.987Z" fill="black"/>
<path d="M363.234 170.373C354.768 156.938 321.4 126.086 318.91 118.622C316.42 111.157 307.953 76.3242 304.467 76.3242V117.626C304.467 117.626 311.937 119.119 316.918 128.076C321.898 137.033 348.791 185.799 359.25 193.263C359.25 193.263 357.756 199.732 349.29 207.694C340.823 215.656 335.345 234.067 328.871 235.56C322.396 237.054 315.423 232.077 316.42 220.632C317.415 209.187 326.38 203.713 329.369 192.268C332.356 180.823 331.361 153.952 303.969 154.947V292.288L305.01 292.826L341.809 272.911C344.618 262.069 348.274 251.027 352.781 243.522C371.193 212.864 380.172 193.263 380.172 193.263C380.172 193.263 371.706 183.809 363.239 170.373H363.234Z" fill="black"/>
</g>
<path d="M627.026 352.15V354.94H621.476V373H618.056V354.94H612.476V352.15H627.026ZM652.449 352.15V373H649.029V358.72L642.669 373H640.299L633.909 358.72V373H630.489V352.15H634.179L641.499 368.5L648.789 352.15H652.449Z" fill="black"/>
</svg>
